<svg xmlns="http://www.w3.org/2000/svg" version="1.1" xmlns:xlink="http://www.w3.org/1999/xlink" xmlns:svgjs="http://svgjs.com/svgjs" width="1920" height="1080" preserveAspectRatio="none" viewBox="0 0 1920 1080"><g mask="url(&quot;#SvgjsMask2729&quot;)" fill="none"><path d="M1424 75L651 -698" stroke-width="10" stroke="url(#SvgjsLinearGradient2730)" stroke-linecap="round" class="BottomRight"></path><path d="M1445 593L1950 1098" stroke-width="6" stroke="url(#SvgjsLinearGradient2731)" stroke-linecap="round" class="TopLeft"></path><path d="M882 829L1555 1502" stroke-width="6" stroke="url(#SvgjsLinearGradient2730)" stroke-linecap="round" class="BottomRight"></path><path d="M1467 782L666 -19" stroke-width="10" stroke="url(#SvgjsLinearGradient2731)" stroke-linecap="round" class="TopLeft"></path><path d="M584 446L1320 1182" stroke-width="10" stroke="url(#SvgjsLinearGradient2731)" stroke-linecap="round" class="TopLeft"></path><path d="M917 534L1494 1111" stroke-width="10" stroke="url(#SvgjsLinearGradient2731)" stroke-linecap="round" class="TopLeft"></path><path d="M1682 87L982 -613" stroke-width="6" stroke="url(#SvgjsLinearGradient2731)" stroke-linecap="round" class="TopLeft"></path><path d="M1799 958L2131 1290" stroke-width="6" stroke="url(#SvgjsLinearGradient2731)" stroke-linecap="round" class="TopLeft"></path><path d="M1857 231L2537 911" stroke-width="8" stroke="url(#SvgjsLinearGradient2730)" stroke-linecap="round" class="BottomRight"></path><path d="M598 179L-144 -563" stroke-width="6" stroke="url(#SvgjsLinearGradient2730)" stroke-linecap="round" class="BottomRight"></path><path d="M1040 1075L561 596" stroke-width="8" stroke="url(#SvgjsLinearGradient2732)" stroke-linecap="round" class="BottomRight"></path><path d="M526 1016L1009 1499" stroke-width="8" stroke="url(#SvgjsLinearGradient2732)" stroke-linecap="round" class="BottomRight"></path><path d="M344 623L642 921" stroke-width="8" stroke="url(#SvgjsLinearGradient2730)" stroke-linecap="round" class="BottomRight"></path><path d="M926 338L482 -106" stroke-width="8" stroke="url(#SvgjsLinearGradient2733)" stroke-linecap="round" class="TopLeft"></path><path d="M229 584L672 1027" stroke-width="6" stroke="url(#SvgjsLinearGradient2732)" stroke-linecap="round" class="BottomRight"></path><path d="M1858 218L2215 575" stroke-width="8" stroke="url(#SvgjsLinearGradient2732)" stroke-linecap="round" class="BottomRight"></path><path d="M1120 430L1546 856" stroke-width="10" stroke="url(#SvgjsLinearGradient2731)" stroke-linecap="round" class="TopLeft"></path><path d="M1499 217L1940 658" stroke-width="8" stroke="url(#SvgjsLinearGradient2733)" stroke-linecap="round" class="TopLeft"></path><path d="M1143 227L380 -536" stroke-width="10" stroke="url(#SvgjsLinearGradient2733)" stroke-linecap="round" class="TopLeft"></path><path d="M822 682L1200 1060" stroke-width="6" stroke="url(#SvgjsLinearGradient2731)" stroke-linecap="round" class="TopLeft"></path><path d="M456 697L-308 -67" stroke-width="6" stroke="url(#SvgjsLinearGradient2732)" stroke-linecap="round" class="BottomRight"></path><path d="M408 229L-360 -539" stroke-width="8" stroke="url(#SvgjsLinearGradient2731)" stroke-linecap="round" class="TopLeft"></path><path d="M1167 710L723 266" stroke-width="10" stroke="url(#SvgjsLinearGradient2732)" stroke-linecap="round" class="BottomRight"></path><path d="M1528 971L1160 603" stroke-width="6" stroke="url(#SvgjsLinearGradient2733)" stroke-linecap="round" class="TopLeft"></path><path d="M1491 769L1947 1225" stroke-width="10" stroke="url(#SvgjsLinearGradient2732)" stroke-linecap="round" class="BottomRight"></path><path d="M1122 140L1444 462" stroke-width="6" stroke="url(#SvgjsLinearGradient2730)" stroke-linecap="round" class="BottomRight"></path><path d="M788 1046L202 460" stroke-width="8" stroke="url(#SvgjsLinearGradient2733)" stroke-linecap="round" class="TopLeft"></path><path d="M716 204L269 -243" stroke-width="10" stroke="url(#SvgjsLinearGradient2731)" stroke-linecap="round" class="TopLeft"></path><path d="M1595 246L1880 531" stroke-width="10" stroke="url(#SvgjsLinearGradient2732)" stroke-linecap="round" class="BottomRight"></path><path d="M576 837L1254 1515" stroke-width="6" stroke="url(#SvgjsLinearGradient2730)" stroke-linecap="round" class="BottomRight"></path><path d="M1045 793L506 254" stroke-width="8" stroke="url(#SvgjsLinearGradient2732)" stroke-linecap="round" class="BottomRight"></path><path d="M435 643L1211 1419" stroke-width="8" stroke="url(#SvgjsLinearGradient2730)" stroke-linecap="round" class="BottomRight"></path><path d="M149 246L494 591" stroke-width="10" stroke="url(#SvgjsLinearGradient2731)" stroke-linecap="round" class="TopLeft"></path><path d="M1795 636L2602 1443" stroke-width="8" stroke="url(#SvgjsLinearGradient2731)" stroke-linecap="round" class="TopLeft"></path><path d="M770 920L-15 135" stroke-width="8" stroke="url(#SvgjsLinearGradient2731)" stroke-linecap="round" class="TopLeft"></path><path d="M124 978L550 1404" stroke-width="6" stroke="url(#SvgjsLinearGradient2733)" stroke-linecap="round" class="TopLeft"></path><path d="M1793 686L2170 1063" stroke-width="10" stroke="url(#SvgjsLinearGradient2731)" stroke-linecap="round" class="TopLeft"></path><path d="M732 400L1327 995" stroke-width="10" stroke="url(#SvgjsLinearGradient2733)" stroke-linecap="round" class="TopLeft"></path><path d="M1665 864L1209 408" stroke-width="8" stroke="url(#SvgjsLinearGradient2733)" stroke-linecap="round" class="TopLeft"></path><path d="M564 638L239 313" stroke-width="8" stroke="url(#SvgjsLinearGradient2730)" stroke-linecap="round" class="BottomRight"></path><path d="M1326 1074L1893 1641" stroke-width="10" stroke="url(#SvgjsLinearGradient2730)" stroke-linecap="round" class="BottomRight"></path><path d="M1063 648L468 53" stroke-width="8" stroke="url(#SvgjsLinearGradient2733)" stroke-linecap="round" class="TopLeft"></path><path d="M1567 487L2223 1143" stroke-width="10" stroke="url(#SvgjsLinearGradient2733)" stroke-linecap="round" class="TopLeft"></path><path d="M1472 21L1780 329" stroke-width="8" stroke="url(#SvgjsLinearGradient2733)" stroke-linecap="round" class="TopLeft"></path><path d="M1782 218L2468 904" stroke-width="8" stroke="url(#SvgjsLinearGradient2732)" stroke-linecap="round" class="BottomRight"></path><path d="M1437 726L697 -14" stroke-width="8" stroke="url(#SvgjsLinearGradient2730)" stroke-linecap="round" class="BottomRight"></path><path d="M508 894L5 391" stroke-width="6" stroke="url(#SvgjsLinearGradient2733)" stroke-linecap="round" class="TopLeft"></path><path d="M142 644L-216 286" stroke-width="6" stroke="url(#SvgjsLinearGradient2732)" stroke-linecap="round" class="BottomRight"></path><path d="M23 713L-677 13" stroke-width="10" stroke="url(#SvgjsLinearGradient2730)" stroke-linecap="round" class="BottomRight"></path><path d="M1384 1034L638 288" stroke-width="6" stroke="url(#SvgjsLinearGradient2730)" stroke-linecap="round" class="BottomRight"></path><path d="M1842 104L1327 -411" stroke-width="6" stroke="url(#SvgjsLinearGradient2730)" stroke-linecap="round" class="BottomRight"></path><path d="M1237 618L1896 1277" stroke-width="10" stroke="url(#SvgjsLinearGradient2730)" stroke-linecap="round" class="BottomRight"></path><path d="M1616 1008L2250 1642" stroke-width="8" stroke="url(#SvgjsLinearGradient2732)" stroke-linecap="round" class="BottomRight"></path><path d="M689 575L1265 1151" stroke-width="6" stroke="url(#SvgjsLinearGradient2732)" stroke-linecap="round" class="BottomRight"></path><path d="M1263 988L1579 1304" stroke-width="10" stroke="url(#SvgjsLinearGradient2730)" stroke-linecap="round" class="BottomRight"></path><path d="M1009 232L1371 594" stroke-width="6" stroke="url(#SvgjsLinearGradient2731)" stroke-linecap="round" class="TopLeft"></path></g><defs><mask id="SvgjsMask2729"><rect width="1920" height="1080" fill="#ffffff"></rect></mask><linearGradient x1="0%" y1="0%" x2="100%" y2="100%" id="SvgjsLinearGradient2730"><stop stop-color="rgba(27, 163, 156, 0)" offset="0"></stop><stop stop-color="rgba(27, 163, 156, 1)" offset="1"></stop></linearGradient><linearGradient x1="100%" y1="100%" x2="0%" y2="0%" id="SvgjsLinearGradient2731"><stop stop-color="rgba(27, 163, 156, 0)" offset="0"></stop><stop stop-color="rgba(27, 163, 156, 1)" offset="1"></stop></linearGradient><linearGradient x1="0%" y1="0%" x2="100%" y2="100%" id="SvgjsLinearGradient2732"><stop stop-color="rgba(51, 51, 51, 0)" offset="0"></stop><stop stop-color="rgba(51, 51, 51, 1)" offset="1"></stop></linearGradient><linearGradient x1="100%" y1="100%" x2="0%" y2="0%" id="SvgjsLinearGradient2733"><stop stop-color="rgba(51, 51, 51, 0)" offset="0"></stop><stop stop-color="rgba(51, 51, 51, 1)" offset="1"></stop></linearGradient></defs></svg>