<svg xmlns="http://www.w3.org/2000/svg" version="1.1" xmlns:xlink="http://www.w3.org/1999/xlink" xmlns:svgjs="http://svgjs.com/svgjs" width="1920" height="1080" preserveAspectRatio="none" viewBox="0 0 1920 1080"><g mask="url(&quot;#SvgjsMask1078&quot;)" fill="none"><rect width="1920" height="1080" x="0" y="0" fill="url(#SvgjsLinearGradient1079)"></rect><path d="M1920 0L1562.51 0L1920 336.71z" fill="rgba(255, 255, 255, .1)"></path><path d="M1562.51 0L1920 336.71L1920 386.25L829.49 0z" fill="rgba(255, 255, 255, .075)"></path><path d="M829.49 0L1920 386.25L1920 398.86L711.58 0z" fill="rgba(255, 255, 255, .05)"></path><path d="M711.5799999999999 0L1920 398.86L1920 684.21L618.5999999999999 0z" fill="rgba(255, 255, 255, .025)"></path><path d="M0 1080L22.53 1080L0 992.77z" fill="rgba(0, 0, 0, .1)"></path><path d="M0 992.77L22.53 1080L575.31 1080L0 895.6z" fill="rgba(0, 0, 0, .075)"></path><path d="M0 895.6L575.31 1080L632.6199999999999 1080L0 684.55z" fill="rgba(0, 0, 0, .05)"></path><path d="M0 684.55L632.6199999999999 1080L1213.0099999999998 1080L0 265.30999999999995z" fill="rgba(0, 0, 0, .025)"></path></g><defs><mask id="SvgjsMask1078"><rect width="1920" height="1080" fill="#ffffff"></rect></mask><linearGradient x1="10.94%" y1="-19.44%" x2="89.06%" y2="119.44%" gradientUnits="userSpaceOnUse" id="SvgjsLinearGradient1079"><stop stop-color="rgba(51, 51, 51, 1)" offset="0"></stop><stop stop-color="rgba(27, 163, 156, 1)" offset="1"></stop></linearGradient></defs></svg>